<svg width="26.000000" height="26.000000" viewBox="0 0 26 26" fill="none" xmlns="http://www.w3.org/2000/svg" xmlns:xlink="http://www.w3.org/1999/xlink">
	<desc>
			Created with Pixso.
	</desc>
	<defs/>
	<rect width="26.000000" height="26.000000"/>
	<g opacity="0.050000">
		<path id="path" d="M23.99 5C23.56 5 23.14 5.14 22.79 5.41L17.09 9.62C16.96 9.72 16.81 9.77 16.66 9.77C16.51 9.77 16.37 9.72 16.25 9.64L12.27 6.65C11.47 6.04 10.51 5.73 9.52 5.73C7.94 5.73 6.49 6.52 5.64 7.84L4.43 9.73L0.31 16.43C-0.08 17.04 -0.11 17.8 0.24 18.44C0.6 19.1 1.27 19.5 2 19.5C2.43 19.5 2.85 19.36 3.2 19.09L8.9 14.88C9.03 14.78 9.18 14.73 9.33 14.73C9.48 14.73 9.62 14.77 9.74 14.86L13.71 17.85C14.52 18.45 15.47 18.77 16.47 18.77C18.05 18.77 19.5 17.98 20.35 16.66L21.56 14.76L25.68 8.07C26.07 7.46 26.1 6.7 25.75 6.06C25.39 5.4 24.72 5 23.99 5Z" fill="#000000" fill-opacity="1.000000" fill-rule="nonzero"/>
	</g>
	<g opacity="0.070000">
		<path id="path" d="M23.99 5.5C23.67 5.5 23.36 5.6 23.09 5.81L17.39 10.02C17.17 10.19 16.92 10.27 16.66 10.27C16.4 10.27 16.15 10.19 15.95 10.04L11.97 7.04C11.26 6.51 10.41 6.23 9.52 6.23C8.11 6.23 6.82 6.93 6.06 8.11L4.85 10.01L0.74 16.69C0.44 17.16 0.42 17.73 0.68 18.2C0.95 18.69 1.47 19 2 19C2.32 19 2.63 18.9 2.9 18.69L8.6 14.48C8.82 14.31 9.07 14.23 9.33 14.23C9.59 14.23 9.84 14.31 10.04 14.46L14.02 17.45C14.73 17.99 15.58 18.27 16.47 18.27C17.88 18.27 19.17 17.57 19.93 16.39L21.14 14.49L25.25 7.81C25.55 7.34 25.57 6.77 25.31 6.3C25.04 5.81 24.52 5.5 23.99 5.5Z" fill="#000000" fill-opacity="1.000000" fill-rule="nonzero"/>
	</g>
	<path id="path" d="M23.39 6.2L17.69 10.42C17.08 10.88 16.25 10.88 15.65 10.43L11.67 7.44C9.99 6.19 7.61 6.62 6.48 8.38L5.27 10.27L1.16 16.95C0.56 17.89 1.71 18.96 2.6 18.29L8.3 14.07C8.91 13.61 9.74 13.61 10.34 14.06L14.32 17.05C16 18.3 18.38 17.87 19.51 16.11L20.72 14.22L24.83 7.54C25.43 6.6 24.28 5.53 23.39 6.2Z" fill="#FFFFFF" fill-opacity="1.000000" fill-rule="nonzero"/>
</svg>
