<svg width="50.000000" height="50.000000" viewBox="0 0 50 50" fill="none" xmlns="http://www.w3.org/2000/svg" xmlns:xlink="http://www.w3.org/1999/xlink">
	<desc>
			Created with Pixso.
	</desc>
	<defs/>
	<rect width="50.000000" height="50.000000"/>
	<path id="path" d="M13.33 27.83L18.43 41.95C18.43 41.95 19.07 43.28 19.75 43.28C20.43 43.28 30.59 32.71 30.59 32.71L41.89 10.89L13.51 24.19L13.33 27.83Z" fill="#C8DAEA" fill-opacity="1.000000" fill-rule="nonzero"/>
	<path id="path" d="M20.09 31.45L19.11 41.86C19.11 41.86 18.7 45.05 21.89 41.86C25.08 38.67 28.13 36.21 28.13 36.21L20.09 31.45Z" fill="#A9C6D8" fill-opacity="1.000000" fill-rule="nonzero"/>
	<path id="path" d="M13.42 28.34L2.93 24.92C2.93 24.92 1.67 24.41 2.08 23.26C2.16 23.02 2.33 22.82 2.83 22.47C5.15 20.85 45.87 6.21 45.87 6.21C45.87 6.21 47.02 5.83 47.69 6.08C48.06 6.2 48.29 6.44 48.37 6.82C48.44 7.12 48.47 7.43 48.46 7.75C48.46 8.02 48.42 8.27 48.4 8.66C48.15 12.66 40.73 42.52 40.73 42.52C40.73 42.52 40.29 44.26 38.7 44.32C37.87 44.35 37.16 44.08 36.57 43.5C33.45 40.82 22.66 33.57 20.28 31.97C20.16 31.89 20.1 31.79 20.08 31.65C20.05 31.48 20.23 31.27 20.23 31.27C20.23 31.27 39.02 14.58 39.52 12.82C39.56 12.69 39.41 12.62 39.21 12.68C37.97 13.14 16.34 26.8 13.95 28.31C13.78 28.36 13.6 28.37 13.42 28.34Z" fill="#FFFFFF" fill-opacity="1.000000" fill-rule="nonzero"/>
</svg>
