<svg width="24.000000" height="24.000000" viewBox="0 0 24 24" fill="none" xmlns="http://www.w3.org/2000/svg" xmlns:xlink="http://www.w3.org/1999/xlink">
	<desc>
			Created with Pixso.
	</desc>
	<defs>
		<clipPath id="clip2_11">
			<rect id="svg" width="24.000000" height="24.000000" fill="white" fill-opacity="0"/>
		</clipPath>
	</defs>
	<g clip-path="url(#clip2_11)">
		<path id="path" d="M0.05 24L1.74 17.83C0.7 16.03 0.15 13.98 0.15 11.89C0.16 5.33 5.49 0 12.05 0C15.23 0 18.21 1.24 20.46 3.48C22.7 5.73 23.94 8.72 23.94 11.9C23.94 18.45 18.6 23.79 12.05 23.79C10.06 23.79 8.09 23.29 6.36 22.34L0.05 24ZM6.65 20.19C8.33 21.18 9.93 21.78 12.04 21.78C17.49 21.78 21.93 17.35 21.93 11.9C21.93 6.43 17.52 2.01 12.05 2C6.6 2 2.16 6.44 2.16 11.89C2.16 14.11 2.81 15.78 3.91 17.52L2.91 21.17L6.65 20.19ZM18.04 14.72C17.96 14.6 17.76 14.53 17.47 14.38C17.17 14.23 15.71 13.51 15.44 13.41C15.16 13.31 14.97 13.26 14.77 13.56C14.57 13.86 14 14.53 13.83 14.72C13.65 14.92 13.48 14.95 13.18 14.8C12.88 14.65 11.93 14.34 10.79 13.32C9.91 12.54 9.31 11.56 9.14 11.26C8.97 10.97 9.12 10.81 9.27 10.66C9.4 10.53 9.57 10.31 9.71 10.14C9.87 9.97 9.91 9.84 10.01 9.64C10.11 9.44 10.06 9.27 9.99 9.12C9.91 8.97 9.32 7.51 9.07 6.92C8.83 6.34 8.59 6.41 8.4 6.41L7.83 6.4C7.64 6.4 7.31 6.47 7.04 6.77C6.77 7.07 6 7.78 6 9.25C6 10.71 7.07 12.12 7.22 12.32C7.36 12.52 9.31 15.52 12.29 16.81C13 17.11 13.55 17.3 13.99 17.43C14.7 17.66 15.35 17.63 15.86 17.55C16.43 17.47 17.62 16.83 17.86 16.14C18.11 15.44 18.11 14.85 18.04 14.72Z" fill="#FFFFFF" fill-opacity="1.000000" fill-rule="nonzero"/>
	</g>
</svg>
